# xmcd
#
# Track frame offsets:
#	150
#	10150
#	21482
#	30592
#	45777
#	57447
#	72012
#	83685
#	106977
#	121025
#	131392
#	143435
#	155897
#	171227
#	183675
#	194267
#
# Disc length: 2707 seconds
#
# Revision: 1
# Processed by: cddbd v1.5.2PL0 Copyright (c) Steve Scherf et al.
# Submitted via: audiograbber 1.83.01
#
DISCID=cc0a9110
DTITLE=NASHVILLE DULCIMER - 16 Super Hits
DYEAR=2000
DGENRE=Instrumental
TTITLE0=Banks Of The Ohio
TTITLE1=Where The Roses Never Fade
TTITLE2=Beneath The Weeping Willow
TTITLE3=Gold Rush
TTITLE4=Cajun's Waltz
TTITLE5=Storm On The Ocean
TTITLE6=Lorena
TTITLE7=Waltz Medley
TTITLE8=Cherokee Shuffle
TTITLE9=Sweet Bunch Of Daisies
TTITLE10=South Wind Waltz
TTITLE11=Flop Eared Mule
TTITLE12=Rose Of Sharon
TTITLE13=Chinese Breakdown
TTITLE14=Wildwood Flower
TTITLE15=Old Spinning Wheel
EXTD=
EXTT0=
EXTT1=
EXTT2=
EXTT3=
EXTT4=
EXTT5=
EXTT6=
EXTT7=
EXTT8=
EXTT9=
EXTT10=
EXTT11=
EXTT12=
EXTT13=
EXTT14=
EXTT15=
PLAYORDER=
